# xmcd
#
# Track frame offsets:
#	150
#	15020
#	28425
#	47285
#	64290
#	79392
#	93975
#	107634
#	124298
#	137850
#	152925
#	170891
#	186075
#	205978
#	217856
#	230700
#	243042
#	254776
#	271905
#	288869
#
# Disc length: 4114
#
# Revision: 2
# Processed by: cddbd v1.5.1PL0 Copyright (c) Steve Scherf et al.
# Submitted via: EasyCDDAExtractor 7.0.6.1
# Normalized: r1:DSETVAR1
#
DISCID=24101014
DTITLE=Various Artist - How Great Thou Art
DYEAR=1900
DGENRE=Country
TTITLE0=Daniel O'Donnell - Footsteps
TTITLE1=Crystal Gale - Would You Believe
TTITLE2=Charlie Landsborough - My Forever Friend
TTITLE3=Dominic Kirwan - You Are The One
TTITLE4=Gloria - One Day At A Time
TTITLE5=Charley pride - You'll Never Walk Alone
TTITLE6=Frank McCaffery - A Little Peace
TTITLE7=Mary Duff - Amazing Grace
TTITLE8=Eamon McCann - What God Has Joined Together
TTITLE9=Daniel O'Donnell and Mary Duff - Whispering Hope
TTITLE10=Charlie Landsborough - Shine Your Light
TTITLE11=Frank McVaffery - Ave Maria
TTITLE12=Crystal Gayle - I Saw The Light  Medley
TTITLE13=Dominic Kirwan - St Therese Of The Roses
TTITLE14=Mary Duff - Michael
TTITLE15=John Hogan - Walk Through The World With Me
TTITLE16=Gloria - Just A Closer Walk With Thee
TTITLE17=Mick Flavin - The Little Mountain Church House
TTITLE18=Margo - How Far Is Heaven
TTITLE19=Daniel O' Donnell - How Great Thou Art
EXTD=
EXTT0=
EXTT1=
EXTT2=
EXTT3=
EXTT4=
EXTT5=
EXTT6=
EXTT7=
EXTT8=
EXTT9=
EXTT10=
EXTT11=
EXTT12=
EXTT13=
EXTT14=
EXTT15=
EXTT16=
EXTT17=
EXTT18=
EXTT19=
PLAYORDER=
